<svg width="92" height="29" viewBox="0 0 92 29" fill="none" xmlns="http://www.w3.org/2000/svg">
<path d="M0.0518741 23.196C0.0518741 26.902 2.70387 28.874 5.79787 28.874C8.58587 28.874 10.5919 27.208 11.4759 26.222V27.14C11.4759 28.568 11.8839 28.874 13.4139 28.874C14.7739 28.874 16.7799 28.568 17.5619 28.364V26.46H15.7259V16.056C15.7259 11.126 14.0599 9.188 8.85787 9.188C5.01587 9.188 1.61587 11.092 0.833874 11.772L1.88787 13.948C2.97587 13.438 5.04987 12.418 7.63387 12.418C10.5579 12.418 11.2039 13.54 11.2039 16.158V16.94C5.04987 16.974 0.0518741 18.878 0.0518741 23.196ZM7.97387 26.052C6.27387 26.052 5.11787 24.93 5.11787 22.72C5.11787 20.68 6.91987 19.014 11.2039 19.014V24.59C10.3199 25.372 8.95987 26.052 7.97387 26.052ZM23.5877 26.154L21.6157 26.46V28.5H30.4897V26.46L28.4497 26.154V13.778C29.4017 13.064 30.9997 12.112 32.5977 12.112C34.9437 12.112 35.4877 13.438 35.4877 16.804V26.188L33.6517 26.46V28.5H42.4237V26.46L40.3497 26.188V16.804C40.3497 11.364 39.0237 9.222 34.9097 9.222C32.1217 9.222 29.4017 10.65 27.9737 11.976L28.0077 11.16V9.834L27.1577 9.154H27.0557L21.4117 9.868V12.214L23.5877 12.826V26.154ZM52.5383 28.806C54.9863 28.806 57.7403 27.82 58.8963 26.936L58.2503 25.032C57.5363 25.338 56.1763 25.678 54.9523 25.678C53.3883 25.678 53.2183 25.406 53.2183 21.768V12.214H58.3863V9.596H53.1843L53.0483 4.598H50.3283C50.0563 5.55 49.5803 7.284 49.2063 8.134C48.9343 8.882 48.6283 9.358 48.2203 9.664C47.7103 9.902 46.7923 10.208 46.1463 10.446V12.214H48.3563V24.692C48.3563 27.616 49.7503 28.806 52.5383 28.806ZM66.7512 6.502H66.7852C68.7912 6.502 69.8792 5.278 69.8792 3.51C69.8792 2.15 69.0292 0.959998 67.0912 0.959998C65.2212 0.959998 64.0992 2.252 64.0992 3.952C64.0992 5.38 65.0512 6.502 66.7512 6.502ZM64.9492 26.154L62.5692 26.46V28.5H72.0552V26.46L69.7772 26.188V9.834L68.8252 9.154H68.7572L62.5352 9.902V12.18L64.9492 12.826V26.154ZM76.0503 19.218C76.0503 24.726 78.7703 28.874 84.7883 28.874C87.8823 28.874 90.4663 27.31 91.4183 26.29L90.6363 24.522C89.5823 25.202 87.9843 25.916 85.8763 25.916C83.0883 25.916 81.1503 23.332 81.1503 18.198C81.1843 13.268 82.8163 11.33 85.2303 11.33C86.1483 11.33 87.0663 11.534 87.2363 12.214L88.0863 15.954H91.0443L91.2483 10.14C90.1943 9.936 88.5283 9.12 85.7063 9.12C79.7223 9.12 76.0163 13.302 76.0503 19.218Z" fill="#A06056"/>
</svg>
